<svg width="4000" height="4000" viewBox="0 0 4000 4000" fill="none" xmlns="http://www.w3.org/2000/svg">
<circle cx="2000" cy="2000" r="2000" fill="#FFDC83"/>
<path d="M902 3302L3123 803" stroke="black" stroke-width="157" stroke-linecap="round"/>
<path d="M2705 1831.5C2705 2791.37 2385.87 3610 1970 3610C1554.13 3610 1217 2831.87 1217 1872C1217 912.129 1554.13 134 1970 134C2385.87 134 2705 871.629 2705 1831.5Z" fill="#FFDC83"/>
<path d="M1944.87 2991.87C1888.35 2539.69 1659.56 2368.59 1509.61 2313.36" stroke="black" stroke-width="168" stroke-linecap="round"/>
<path d="M1460.91 2303.04C1392.69 2735.23 1495.73 2896.53 1948.88 3029.64" stroke="black" stroke-width="168" stroke-linecap="round"/>
<path d="M2042.74 3004.59C2096.6 2552.09 2324.37 2379.65 2474 2323.53" stroke="black" stroke-width="168" stroke-linecap="round"/>
<path d="M2522.64 2312.93C2593.4 2744.7 2491.31 2906.6 2038.96 3042.38" stroke="black" stroke-width="168" stroke-linecap="round"/>
<path d="M1951.14 1294.22C1744.44 888.096 1837.96 618.154 1931.17 488.347" stroke="black" stroke-width="168" stroke-linecap="round"/>
<path d="M1965.71 452.503C2264.5 772.136 2269.6 963.465 1968.99 1327.74" stroke="black" stroke-width="168" stroke-linecap="round"/>
<path d="M1836.82 2274.23C1817.4 2118.87 1738.8 2060.09 1687.28 2041.11" stroke="#FFDC83" stroke-width="432" stroke-linecap="round"/>
<path d="M1670.54 2037.56C1647.1 2186.06 1682.51 2241.48 1838.2 2287.21" stroke="#FFDC83" stroke-width="432" stroke-linecap="round"/>
<path d="M2010.76 2498.49C1827.47 2081.28 1559.36 1982.63 1399.88 1972.51" stroke="black" stroke-width="168" stroke-linecap="round"/>
<path d="M1350.26 1976.53C1408.29 2410.2 1553.09 2535.36 2025.38 2533.54" stroke="black" stroke-width="168" stroke-linecap="round"/>
<path d="M2197.37 2301.23C2216.79 2145.87 2295.4 2087.09 2346.92 2068.11" stroke="#FFDC83" stroke-width="432" stroke-linecap="round"/>
<path d="M2363.65 2064.56C2387.09 2213.06 2351.69 2268.48 2196 2314.21" stroke="#FFDC83" stroke-width="432" stroke-linecap="round"/>
<path d="M2017 2488.85C1989.1 2179.98 2391.52 2047.56 2665.09 2009.47" stroke="black" stroke-width="168" stroke-linecap="round"/>
<path d="M2669.02 2035.39C2579.09 2463.58 2425.43 2577.7 1954.57 2540.97" stroke="black" stroke-width="168" stroke-linecap="round"/>
<path d="M1800.82 1912.23C1781.4 1756.87 1702.8 1698.09 1651.28 1679.11" stroke="#FFDC83" stroke-width="432" stroke-linecap="round"/>
<path d="M1634.54 1675.56C1611.1 1824.06 1646.51 1879.48 1802.2 1925.21" stroke="#FFDC83" stroke-width="432" stroke-linecap="round"/>
<path d="M2005.76 2088.48C1822.47 1671.27 1554.36 1572.62 1394.88 1562.51" stroke="black" stroke-width="168" stroke-linecap="round"/>
<path d="M1345.26 1566.52C1403.29 2000.2 1548.09 2125.36 2020.38 2123.53" stroke="black" stroke-width="168" stroke-linecap="round"/>
<path d="M2215.37 1921.23C2234.79 1765.87 2313.4 1707.09 2364.92 1688.11" stroke="#FFDC83" stroke-width="432" stroke-linecap="round"/>
<path d="M2381.65 1684.56C2405.09 1833.06 2369.69 1888.48 2214 1934.21" stroke="#FFDC83" stroke-width="432" stroke-linecap="round"/>
<path d="M1945.18 2090.26C2158.8 1687.73 2433.47 1609.17 2593.27 1610.87" stroke="black" stroke-width="168" stroke-linecap="round"/>
<path d="M2642.45 1618.55C2552.53 2046.75 2398.87 2160.86 1928.01 2124.13" stroke="black" stroke-width="168" stroke-linecap="round"/>
<path d="M1913.39 1681.75C1989.19 1232.4 1819.23 1002.78 1691.47 906.781" stroke="black" stroke-width="168" stroke-linecap="round"/>
<path d="M1647.79 882.905C1458.25 1277.26 1510.59 1461.36 1906.37 1719.08" stroke="black" stroke-width="168" stroke-linecap="round"/>
<path d="M2043.16 1650.15C2042.74 1194.46 2248.36 996.115 2390.23 922.578" stroke="black" stroke-width="168" stroke-linecap="round"/>
<path d="M2437.26 906.257C2558.95 1326.53 2476.87 1499.44 2043.91 1688.13" stroke="black" stroke-width="168" stroke-linecap="round"/>
<path d="M1969 3455V2927" stroke="black" stroke-width="217" stroke-linecap="round"/>
</svg>
